<svg viewBox="0 0 372 104" fill="none" xmlns="http://www.w3.org/2000/svg"><path d="M66.21 39.487h25.207C89.088 16.745 74.84.853 48.125.853 17.163.853.586 22.362.586 52.365c0 29.181 15.755 50.827 46.854 50.827 26.99 0 41.785-16.44 43.977-38.908H66.21c-1.644 10.96-6.028 18.769-19.18 18.769-16.303 0-21.235-12.604-21.235-31.099 0-18.358 4.932-30.962 21.235-30.962 13.015 0 17.4 7.809 19.18 18.495ZM96.881 101h24.66V65.517h22.879c20.413 0 33.154-10.686 33.154-31.236S164.834 3.045 144.421 3.045H96.882V101Zm24.66-55.622V23.184h17.125c8.494 0 13.7 2.877 13.7 11.097 0 8.22-5.206 11.097-13.7 11.097h-17.125ZM182.78 101h48.909c20.276 0 33.565-8.083 33.565-28.907 0-14.659-8.768-21.509-19.043-23.29v-.274c8.083-2.74 15.207-8.768 15.207-20.824 0-16.714-10.686-24.66-31.099-24.66H182.78V101Zm24.66-58.362V23.184h16.44c6.85 0 12.33 1.644 12.33 9.727s-5.48 9.727-12.33 9.727h-16.44Zm0 38.223V57.708h17.125c10.275 0 15.481 2.329 15.481 11.508 0 9.179-5.206 11.645-15.481 11.645H207.44Zm112.817 21.92c30.688 0 50.827-20.002 50.827-50.69 0-30.825-20.139-50.827-50.827-50.827-30.962 0-51.238 20.002-51.238 50.827 0 30.688 20.276 50.69 51.238 50.69Zm0-7.261c-25.893 0-42.881-17.125-42.881-43.429 0-26.441 16.988-43.566 42.881-43.566 25.482 0 42.47 17.125 42.47 43.566 0 26.304-16.988 43.429-42.47 43.429Zm.959-12.467c14.933 0 24.249-9.453 25.208-22.057h-7.946c-.822 5.754-5.069 14.248-17.81 14.248-14.385 0-19.728-10.686-19.728-23.153 0-12.467 5.343-23.29 19.728-23.29 12.33 0 16.714 8.494 17.536 13.289h7.946c-1.507-11.645-10.686-21.098-25.756-21.098-17.536 0-27.948 13.015-27.948 31.099 0 18.221 10.686 30.962 28.77 30.962Z" fill="#FFFFFF"/></svg>